<svg id='icon-phone' width="34.000000" height="34.000000" viewBox="0 0 34 34" fill="none" xmlns="http://www.w3.org/2000/svg" xmlns:xlink="http://www.w3.org/1999/xlink">
	<desc>
			Created with Pixso.
	</desc>
	<defs>
		<clipPath id="clip2_94">
			<rect id="IMAGE" rx="0.000000" width="33.000000" height="33.000000" transform="translate(0.500000 0.500000)" fill="white" fill-opacity="0"/>
		</clipPath>
	</defs>
	<g clip-path="url(#clip2_94)">
		<path id="Vector" d="M26.38 22.32C24.51 21.38 24.36 21.3 22.89 22.39C21.91 23.12 21.26 23.77 20.11 23.53C18.96 23.28 16.47 21.9 14.29 19.73C12.11 17.55 10.65 14.99 10.4 13.85C10.16 12.7 10.82 12.06 11.54 11.08C12.56 9.69 12.48 9.46 11.61 7.59C10.93 6.14 9.08 3.21 7.85 1.99C6.53 0.69 6.53 0.92 5.67 1.27C4.98 1.56 4.32 1.92 3.69 2.33C2.46 3.15 1.77 3.83 1.3 4.85C0.82 5.87 0.6 8.26 3.07 12.74C5.54 17.22 7.27 19.52 10.85 23.09C14.43 26.66 17.19 28.58 21.22 30.84C26.2 33.63 28.11 33.09 29.13 32.61C30.16 32.13 30.84 31.45 31.66 30.22C32.07 29.6 32.43 28.93 32.72 28.24C33.07 27.39 33.3 27.39 32 26.07C30.77 24.84 27.82 23.04 26.38 22.32Z" stroke="#CDA274" stroke-opacity="1.000000" stroke-width="2.000000"/>
	</g>
</svg>
