<svg width="16.000000" height="17.000000" viewBox="0 0 16 17" fill="none" xmlns="http://www.w3.org/2000/svg" xmlns:xlink="http://www.w3.org/1999/xlink">
	<desc>
			Created with Pixso.
	</desc>
	<defs>
		<clipPath id="clip2_401">
			<rect id="IMAGE" rx="0.000000" width="15.000000" height="16.000000" transform="translate(0.500000 0.500000)" fill="white" fill-opacity="0"/>
		</clipPath>
	</defs>
	<g clip-path="url(#clip2_401)">
		<path id="Vector" d="M3.64 16.17L3.64 5.66L0.37 5.66L0.37 16.17L3.64 16.17ZM1.98 4.25C3.04 4.25 3.88 3.37 3.88 2.32C3.88 1.3 3.04 0.45 1.98 0.45C0.96 0.45 0.12 1.3 0.12 2.32C0.12 3.37 0.96 4.25 1.98 4.25ZM15.83 16.17L15.87 16.17L15.87 10.4C15.87 7.59 15.24 5.41 11.93 5.41C10.35 5.41 9.3 6.29 8.84 7.1L8.8 7.1L8.8 5.66L5.67 5.66L5.67 16.17L8.94 16.17L8.94 10.96C8.94 9.59 9.19 8.29 10.88 8.29C12.57 8.29 12.6 9.84 12.6 11.07L12.6 16.17L15.83 16.17Z" fill="#292F36" fill-opacity="1.000000" fill-rule="nonzero"/>
	</g>
</svg>
